<?xml version="1.0" encoding="utf-8"?>
<!-- Generator: Adobe Illustrator 23.0.1, SVG Export Plug-In . SVG Version: 6.00 Build 0)  -->
<svg version="1.1" id="Layer_1" xmlns="http://www.w3.org/2000/svg" xmlns:xlink="http://www.w3.org/1999/xlink" x="0px" y="0px"
	 viewBox="0 0 378.61 86.72" style="enable-background:new 0 0 378.61 86.72;" xml:space="preserve">
<style type="text/css">
	.st0{fill:#9B9B9A;}
	.st1{fill:#E51B40;}
	.st2{fill:#595A5C;}
</style>
<g>
	<path class="st0" d="M183.24,37.2c0,1.9-0.64,3.35-1.93,4.36c-1.29,1.01-3.11,1.52-5.47,1.52h-3.03v8.1h-1.37V31.56h4.8
		C180.91,31.56,183.24,33.44,183.24,37.2z M172.81,41.89h2.7c2.21,0,3.81-0.36,4.79-1.09c0.98-0.73,1.48-1.91,1.48-3.55
		c0-1.51-0.47-2.63-1.4-3.36s-2.37-1.09-4.32-1.09h-3.25V41.89z"/>
	<path class="st0" d="M192.92,36.31c0.62,0,1.28,0.06,1.99,0.19l-0.25,1.27c-0.61-0.15-1.24-0.23-1.89-0.23
		c-1.24,0-2.26,0.53-3.06,1.58s-1.19,2.39-1.19,4v8.05h-1.33V36.59h1.13l0.13,2.63h0.09c0.6-1.07,1.24-1.83,1.92-2.26
		C191.13,36.53,191.95,36.31,192.92,36.31z"/>
	<path class="st0" d="M209.93,43.86c0,2.38-0.58,4.24-1.73,5.57c-1.15,1.34-2.75,2.01-4.78,2.01c-1.28,0-2.41-0.31-3.38-0.93
		s-1.72-1.5-2.24-2.66c-0.52-1.15-0.78-2.49-0.78-4c0-2.38,0.58-4.23,1.73-5.56c1.15-1.33,2.74-1.99,4.75-1.99
		c2,0,3.58,0.67,4.71,2.02C209.36,39.68,209.93,41.52,209.93,43.86z M198.42,43.86c0,2,0.44,3.57,1.32,4.69
		c0.88,1.12,2.13,1.68,3.74,1.68c1.61,0,2.86-0.56,3.74-1.68c0.88-1.12,1.32-2.68,1.32-4.69c0-2.01-0.45-3.57-1.33-4.68
		s-2.14-1.66-3.75-1.66c-1.61,0-2.85,0.55-3.72,1.66C198.85,40.28,198.42,41.84,198.42,43.86z"/>
	<path class="st0" d="M219.79,51.44c-2.08,0-3.72-0.66-4.9-1.97c-1.18-1.31-1.77-3.15-1.77-5.5c0-2.41,0.61-4.29,1.84-5.64
		c1.22-1.35,2.9-2.02,5.03-2.02c1.26,0,2.47,0.22,3.62,0.66l-0.36,1.18c-1.26-0.42-2.36-0.63-3.29-0.63c-1.79,0-3.14,0.55-4.06,1.66
		s-1.38,2.69-1.38,4.77c0,1.97,0.46,3.51,1.38,4.62s2.21,1.67,3.86,1.67c1.32,0,2.55-0.24,3.69-0.71v1.23
		C222.52,51.22,221.3,51.44,219.79,51.44z"/>
	<path class="st0" d="M228.17,36.59v9.44c0,1.47,0.31,2.53,0.92,3.2c0.62,0.67,1.57,1,2.87,1c1.74,0,3.01-0.44,3.83-1.31
		c0.82-0.88,1.23-2.3,1.23-4.28v-8.05h1.32v14.58h-1.13l-0.24-2.01h-0.08c-0.95,1.52-2.63,2.28-5.06,2.28
		c-3.32,0-4.98-1.78-4.98-5.33v-9.52H228.17z"/>
	<path class="st0" d="M248.97,36.31c0.62,0,1.28,0.06,1.99,0.19l-0.25,1.27c-0.61-0.15-1.24-0.23-1.89-0.23
		c-1.24,0-2.26,0.53-3.06,1.58s-1.19,2.39-1.19,4v8.05h-1.33V36.59h1.13l0.13,2.63h0.09c0.6-1.07,1.24-1.83,1.92-2.26
		C247.18,36.53,248,36.31,248.97,36.31z"/>
	<path class="st0" d="M259.81,51.44c-2.12,0-3.77-0.65-4.96-1.96c-1.19-1.31-1.78-3.13-1.78-5.49c0-2.33,0.57-4.19,1.72-5.59
		s2.69-2.1,4.63-2.1c1.72,0,3.07,0.6,4.06,1.8c0.99,1.2,1.49,2.83,1.49,4.88v1.07h-10.5c0.02,2,0.49,3.53,1.4,4.59
		c0.92,1.06,2.23,1.58,3.94,1.58c0.83,0,1.56-0.06,2.19-0.17s1.43-0.37,2.39-0.75v1.21c-0.82,0.36-1.58,0.6-2.28,0.73
		C261.42,51.38,260.65,51.44,259.81,51.44z M259.42,37.49c-1.4,0-2.53,0.46-3.38,1.39c-0.85,0.93-1.35,2.26-1.49,4h9.01
		c0-1.69-0.37-3.01-1.1-3.96S260.71,37.49,259.42,37.49z"/>
	<path class="st0" d="M284.96,51.18h-1.13l-4.31-15.13c-0.36-1.24-0.63-2.26-0.8-3.06c-0.14,0.78-0.35,1.67-0.61,2.68
		c-0.26,1.01-1.71,6.18-4.33,15.51h-1.15l-5.39-19.61h1.43l3.43,12.64c0.13,0.51,0.26,0.98,0.38,1.42s0.22,0.84,0.32,1.22
		s0.18,0.75,0.25,1.1c0.08,0.35,0.14,0.71,0.21,1.07c0.21-1.22,0.67-3.06,1.37-5.54l3.35-11.9h1.52l3.93,13.66
		c0.46,1.57,0.78,2.84,0.98,3.81c0.12-0.64,0.27-1.33,0.45-2.05c0.18-0.72,1.56-5.86,4.14-15.41h1.38L284.96,51.18z"/>
	<path class="st0" d="M293.32,32.54c0-0.86,0.28-1.29,0.84-1.29c0.28,0,0.49,0.11,0.65,0.34c0.16,0.22,0.23,0.54,0.23,0.95
		c0,0.4-0.08,0.72-0.23,0.95c-0.16,0.23-0.37,0.35-0.65,0.35C293.6,33.84,293.32,33.41,293.32,32.54z M294.83,51.18h-1.33V36.59
		h1.33V51.18z"/>
	<path class="st0" d="M308.79,51.18h-10.41v-0.84l8.65-12.56h-8.02v-1.18h9.75v0.85L300.05,50h8.73V51.18z"/>
	<path class="st0" d="M321.24,51.18l-0.34-2.31h-0.11c-0.73,0.94-1.49,1.6-2.26,1.99c-0.77,0.39-1.69,0.58-2.74,0.58
		c-1.43,0-2.54-0.37-3.34-1.1s-1.19-1.75-1.19-3.04c0-1.42,0.59-2.53,1.78-3.31c1.19-0.79,2.9-1.2,5.15-1.25l2.78-0.08v-0.97
		c0-1.39-0.28-2.43-0.84-3.14c-0.56-0.71-1.47-1.06-2.72-1.06c-1.35,0-2.75,0.38-4.2,1.13l-0.5-1.15c1.6-0.75,3.18-1.13,4.75-1.13
		c1.6,0,2.8,0.42,3.59,1.25c0.79,0.83,1.19,2.13,1.19,3.89v9.7H321.24z M315.87,50.24c1.56,0,2.78-0.44,3.68-1.33
		c0.9-0.89,1.35-2.13,1.35-3.71v-1.44l-2.55,0.11c-2.05,0.1-3.51,0.42-4.38,0.96c-0.87,0.54-1.31,1.38-1.31,2.53
		c0,0.91,0.28,1.62,0.84,2.13C314.06,49.98,314.85,50.24,315.87,50.24z"/>
	<path class="st0" d="M332.68,36.31c0.62,0,1.28,0.06,1.99,0.19l-0.25,1.27c-0.61-0.15-1.24-0.23-1.89-0.23
		c-1.24,0-2.26,0.53-3.06,1.58s-1.19,2.39-1.19,4v8.05h-1.33V36.59h1.13l0.13,2.63h0.09c0.6-1.07,1.24-1.83,1.92-2.26
		C330.89,36.53,331.71,36.31,332.68,36.31z"/>
	<path class="st0" d="M342.97,36.31c1.05,0,1.97,0.19,2.74,0.58c0.77,0.38,1.46,1.04,2.07,1.97h0.08c-0.05-1.13-0.08-2.23-0.08-3.31
		V30.3h1.31v20.87h-0.87l-0.33-2.23h-0.11c-1.11,1.66-2.7,2.5-4.78,2.5c-2.01,0-3.55-0.63-4.62-1.88c-1.06-1.25-1.6-3.08-1.6-5.47
		c0-2.52,0.53-4.45,1.58-5.78C339.42,36.98,340.96,36.31,342.97,36.31z M342.97,37.52c-1.59,0-2.79,0.56-3.59,1.68
		c-0.8,1.12-1.2,2.74-1.2,4.87c0,4.13,1.61,6.2,4.82,6.2c1.65,0,2.85-0.48,3.62-1.44s1.15-2.54,1.15-4.74v-0.23
		c0-2.25-0.38-3.87-1.13-4.86S344.66,37.52,342.97,37.52z"/>
</g>
<g>
</g>
<g>
</g>
<g>
	<g>
		<path class="st1" d="M72.44,43.76L55.69,29.05h0c-3.46-3.05-8-4.91-12.98-4.91c-10.84,0-19.62,8.79-19.62,19.62
			c0,10.84,8.79,19.62,19.62,19.62c4.98,0,9.52-1.85,12.98-4.91h0L72.44,43.76z M29.04,43.76c0-7.55,6.12-13.67,13.67-13.67
			c7.55,0,13.66,6.12,13.66,13.67c0,7.55-6.12,13.66-13.66,13.66C35.16,57.43,29.04,51.31,29.04,43.76"/>
	</g>
	<g>
		<path class="st2" d="M77.88,47.61c0-2.96,2.52-5.07,9.77-6.09v-0.66c0-1.83-0.97-2.71-2.77-2.71c-2.22,0-3.85,0.97-5.29,2.21
			l-1.44-1.29c1.79-1.7,4.07-2.91,6.98-2.91c3.49,0,4.87,1.83,4.87,4.87v6.45c0,1.77,0.11,2.85,0.42,3.6h-2.44
			c-0.19-0.61-0.33-1.19-0.33-2.02c-1.63,1.52-3.46,2.24-5.65,2.24C79.48,51.29,77.88,49.96,77.88,47.61 M87.65,47.27v-4.1
			c-5.57,0.89-7.42,2.24-7.42,4.07c0,1.41,0.94,2.16,2.46,2.16C84.63,49.41,86.29,48.6,87.65,47.27"/>
	</g>
	<g>
		<path class="st2" d="M93.24,43.76c0-5.34,3.43-7.61,6.7-7.61c3.29,0,4.85,1.94,5.73,4.1l-2.02,0.83
			c-0.72-1.88-1.86-2.91-3.77-2.91c-2.1,0-4.24,1.47-4.24,5.59c0,3.6,1.72,5.62,4.18,5.62c1.86,0,2.99-0.8,3.93-2.93l1.97,0.77
			c-1.14,2.44-2.82,4.15-5.98,4.15C96.37,51.37,93.24,48.77,93.24,43.76"/>
	</g>
	<g>
		<path class="st2" d="M107.83,43.76c0-5.34,3.43-7.61,6.7-7.61c3.29,0,4.85,1.94,5.73,4.1l-2.02,0.83
			c-0.72-1.88-1.85-2.91-3.77-2.91c-2.1,0-4.23,1.47-4.23,5.59c0,3.6,1.72,5.62,4.18,5.62c1.86,0,2.99-0.8,3.93-2.93l1.97,0.77
			c-1.14,2.44-2.83,4.15-5.98,4.15C110.96,51.37,107.83,48.77,107.83,43.76"/>
	</g>
	<g>
		<path class="st2" d="M122.42,43.76c0-5.32,3.54-7.61,6.62-7.61c3.46,0,6.09,2.44,6.09,7.73v0.5H124.8
			c0.08,3.29,1.99,5.07,4.4,5.07c2.1,0,3.29-0.86,4.4-2.38l1.38,1.22c-1.36,1.94-3.21,3.1-5.95,3.1
			C125.58,51.37,122.42,48.85,122.42,43.76 M132.86,42.51c-0.19-2.6-1.44-4.37-3.85-4.37c-1.97,0-3.82,1.35-4.15,4.37H132.86z"/>
	</g>
	<g>
		<path class="st2" d="M137.21,48.85l1.44-1.44c1.11,1.19,2.58,2.02,4.57,2.02c2.27,0,3.52-0.8,3.52-2.3c0-1.47-1.27-2.02-3.77-2.6
			c-3.1-0.75-5.23-1.58-5.23-4.4c0-2.21,1.94-3.99,5.12-3.99c2.57,0,4.24,0.83,5.59,2.1l-1.25,1.58c-1.11-1.02-2.6-1.74-4.24-1.74
			c-2.13,0-2.96,0.94-2.96,1.96c0,1.36,1.16,1.86,3.46,2.38c3.29,0.8,5.56,1.61,5.56,4.62c0,2.8-2.52,4.29-5.84,4.29
			C140.56,51.34,138.4,50.29,137.21,48.85"/>
	</g>
	<g>
		<path class="st2" d="M151.1,48.85l1.44-1.44c1.11,1.19,2.57,2.02,4.57,2.02c2.27,0,3.52-0.8,3.52-2.3c0-1.47-1.27-2.02-3.77-2.6
			c-3.1-0.75-5.23-1.58-5.23-4.4c0-2.21,1.94-3.99,5.12-3.99c2.57,0,4.24,0.83,5.59,2.1l-1.25,1.58c-1.11-1.02-2.6-1.74-4.23-1.74
			c-2.13,0-2.96,0.94-2.96,1.96c0,1.36,1.16,1.86,3.46,2.38c3.3,0.8,5.57,1.61,5.57,4.62c0,2.8-2.52,4.29-5.84,4.29
			C154.45,51.34,152.29,50.29,151.1,48.85"/>
	</g>
</g>
</svg>
