<?xml version="1.0" encoding="UTF-8" standalone="no"?>
<svg
   xmlns:dc="http://purl.org/dc/elements/1.1/"
   xmlns:cc="http://creativecommons.org/ns#"
   xmlns:rdf="http://www.w3.org/1999/02/22-rdf-syntax-ns#"
   xmlns:svg="http://www.w3.org/2000/svg"
   xmlns="http://www.w3.org/2000/svg"
   xmlns:sodipodi="http://sodipodi.sourceforge.net/DTD/sodipodi-0.dtd"
   xmlns:inkscape="http://www.inkscape.org/namespaces/inkscape"
   version="1.1"
   id="svg10"
   xml:space="preserve"
   width="1122.52"
   height="793.70001"
   viewBox="0 0 1122.52 793.70001"
   sodipodi:docname="AdobeStock_180243032 [Converted].svg"
   inkscape:version="1.0.2-2 (e86c870879, 2021-01-15)"><metadata
     id="metadata16"><rdf:RDF><cc:Work
         rdf:about=""><dc:format>image/svg+xml</dc:format><dc:type
           rdf:resource="http://purl.org/dc/dcmitype/StillImage" /><dc:title></dc:title></cc:Work></rdf:RDF></metadata><defs
     id="defs14"><clipPath
       clipPathUnits="userSpaceOnUse"
       id="clipPath26"><path
         d="M 0,595.275 H 841.89 V 0 H 0 Z"
         id="path24" /></clipPath><clipPath
       clipPathUnits="userSpaceOnUse"
       id="clipPath34"><path
         d="M 18.8955,419.479 H 822.888 V 0.0761261 H 18.8955 Z"
         id="path32" /></clipPath><clipPath
       clipPathUnits="userSpaceOnUse"
       id="clipPath50"><path
         d="m 442.776,525.391 -0.923,-4.939 0.871,-0.326 c 0,0 1.411,2.49 1.573,3.957 v 0 c 0.134,1.204 -0.971,1.314 -1.376,1.314 v 0 c -0.09,0 -0.145,-0.006 -0.145,-0.006"
         id="path48" /></clipPath><linearGradient
       x1="0"
       y1="0"
       x2="1"
       y2="0"
       gradientUnits="userSpaceOnUse"
       gradientTransform="matrix(-7.3673658,-0.0990806,-0.0990806,7.3673658,444.32028,522.78137)"
       spreadMethod="pad"
       id="linearGradient62"><stop
         style="stop-opacity:1;stop-color:#979d9f"
         offset="0"
         id="stop56" /><stop
         style="stop-opacity:1;stop-color:#979d9f"
         offset="0.202454"
         id="stop58" /><stop
         style="stop-opacity:1;stop-color:#d2d1d1"
         offset="1"
         id="stop60" /></linearGradient><clipPath
       clipPathUnits="userSpaceOnUse"
       id="clipPath72"><path
         d="m 454.106,449.646 c 0.045,-0.025 0.103,-0.047 0.169,-0.066 v 0 c -0.148,0.019 -0.311,0.04 -0.491,0.065 v 0 c -0.983,0.14 -1.304,-0.473 -1.304,-0.473 v 0 c 0,0 -0.653,-0.517 -0.105,-1.642 v 0 c -1.079,-0.59 -0.913,-2.43 -0.301,-2.561 v 0 c -0.674,-0.257 -0.693,-1.21 -0.693,-1.21 v 0 c 0,0 -0.053,-1.144 1.003,-1.46 v 0 c 1.585,-0.52 1.816,-0.75 3.379,-0.957 v 0 c 0.853,-0.114 4.854,-0.558 9.568,0.251 v 0 c 1.708,-0.262 4.722,-0.706 4.722,-0.706 v 0 l 1.593,5.577 c 0,0 -3.938,0.497 -5.789,0.875 v 0 c -1.849,0.379 -4.052,3.35 -7.004,3.757 v 0 c -0.856,0.118 -1.489,0.086 -2.084,0.053 v 0 c -1.048,-0.056 -1.975,-0.114 -3.775,0.651 v 0 c -0.59,-0.847 -0.006,-1.511 1.112,-2.154"
         id="path70" /></clipPath><linearGradient
       x1="0"
       y1="0"
       x2="1"
       y2="0"
       gradientUnits="userSpaceOnUse"
       gradientTransform="matrix(-29.084787,11.499438,11.499438,29.084787,463.12485,443.93921)"
       spreadMethod="pad"
       id="linearGradient84"><stop
         style="stop-opacity:1;stop-color:#979d9f"
         offset="0"
         id="stop78" /><stop
         style="stop-opacity:1;stop-color:#979d9f"
         offset="0.202454"
         id="stop80" /><stop
         style="stop-opacity:1;stop-color:#d2d1d1"
         offset="1"
         id="stop82" /></linearGradient><clipPath
       clipPathUnits="userSpaceOnUse"
       id="clipPath94"><path
         d="m 452.443,447.512 c -0.792,-0.398 -1.185,-1.931 -0.309,-2.602 v 0 c -1.408,-0.377 -0.466,-2.572 0.103,-2.524 v 0 c 1.092,0.09 4.476,0.289 5.712,0.372 v 0 c 1.238,0.083 1.162,1.056 0.586,1.535 v 0 c -1.108,0.152 -4.389,0.448 -4.389,0.448 v 0 c 0,0 2.317,0.062 3.733,0.187 v 0 c 1.539,0.136 1.269,1.592 0.376,1.834 v 0 c -0.846,0.105 -3.814,0.551 -3.814,0.551 v 0 c 0,0 1.891,-0.133 3.271,-0.153 v 0 c 1.391,-0.018 1.502,1.454 0.228,1.678 v 0 c -1.174,0.298 -3.022,0.636 -4.048,0.796 v 0 c -0.091,0.014 -0.183,0.021 -0.275,0.021 v 0 c -1.002,-10e-4 -2.053,-0.803 -1.174,-2.143"
         id="path92" /></clipPath><linearGradient
       x1="0"
       y1="0"
       x2="1"
       y2="0"
       gradientUnits="userSpaceOnUse"
       gradientTransform="matrix(11.315545,0.155105,0.155105,-11.315545,449.25479,445.96942)"
       spreadMethod="pad"
       id="linearGradient106"><stop
         style="stop-opacity:1;stop-color:#979d9f"
         offset="0"
         id="stop100" /><stop
         style="stop-opacity:1;stop-color:#979d9f"
         offset="0.202454"
         id="stop102" /><stop
         style="stop-opacity:1;stop-color:#e5e5e5"
         offset="1"
         id="stop104" /></linearGradient><clipPath
       clipPathUnits="userSpaceOnUse"
       id="clipPath116"><path
         d="M 0,595.275 H 841.89 V 0 H 0 Z"
         id="path114" /></clipPath><clipPath
       clipPathUnits="userSpaceOnUse"
       id="clipPath136"><path
         d="M 406,273.307 H 520.333 V -4.57764e-5 H 406 Z"
         id="path134" /></clipPath><clipPath
       clipPathUnits="userSpaceOnUse"
       id="clipPath140"><path
         d="M 520.333,0 C 489,131.275 466.725,270.051 466.725,270.051 l -17.642,3.256 -12.943,-2.969 C 436.14,270.338 410.897,41.753 406,0 Z"
         id="path138" /></clipPath><linearGradient
       x1="0"
       y1="0"
       x2="1"
       y2="0"
       gradientUnits="userSpaceOnUse"
       gradientTransform="matrix(20.79858,-386.83539,-386.83539,-20.79858,453.20602,185.2561)"
       spreadMethod="pad"
       id="linearGradient146"><stop
         style="stop-opacity:1;stop-color:#60aec2"
         offset="0"
         id="stop142" /><stop
         style="stop-opacity:1;stop-color:#ffffff"
         offset="1"
         id="stop144" /></linearGradient><clipPath
       clipPathUnits="userSpaceOnUse"
       id="clipPath172"><path
         d="m 369.86,511.285 h 34.908 V 495.63 H 369.86 Z"
         id="path170" /></clipPath><clipPath
       clipPathUnits="userSpaceOnUse"
       id="clipPath212"><path
         d="m 395.584,360.242 c -1.559,-4.458 -1.559,-8.695 -9.362,-22.069 v 0 c -7.927,-13.59 3.121,-25.859 6.687,-26.306 v 0 c 3.568,-0.445 5.797,0.671 9.587,6.466 v 0 c 3.788,5.796 1.56,8.916 0.221,14.935 v 0 c -0.669,3.009 0.757,7.779 2.298,12.184 v 0 c 0.144,0.406 -10.847,6.023 -10.847,6.023 v 0 c 0,0 11.542,-4.088 11.58,-3.989 v 0 c 1.544,4.063 2.765,6.29 2.765,6.29 v 0 c 2.894,7.026 -1.755,10.613 -6.33,10.613 v 0 c -2.828,0 -5.627,-1.371 -6.599,-4.147"
         id="path210" /></clipPath><linearGradient
       x1="0"
       y1="0"
       x2="1"
       y2="0"
       gradientUnits="userSpaceOnUse"
       gradientTransform="matrix(13.375481,108.787,108.787,-13.375481,390.12695,292.21179)"
       spreadMethod="pad"
       id="linearGradient222"><stop
         style="stop-opacity:1;stop-color:#002b6a"
         offset="0"
         id="stop218" /><stop
         style="stop-opacity:1;stop-color:#ffffff"
         offset="1"
         id="stop220" /></linearGradient><clipPath
       clipPathUnits="userSpaceOnUse"
       id="clipPath232"><path
         d="M 0,595.275 H 841.89 V 0 H 0 Z"
         id="path230" /></clipPath><clipPath
       clipPathUnits="userSpaceOnUse"
       id="clipPath256"><path
         d="m 422.274,313.96 c -11.704,-5.377 0.828,-27.474 0.828,-27.474 v 0 c 0,0 19.537,7.729 22.334,8.713 v 0 c 0.155,-0.228 -13.675,-6.469 -16.942,-7.919 v 0 c 3.801,-6.298 4.805,-17.017 7.883,-17.017 v 0 c 3.196,0 19.695,-0.431 30.512,-0.184 v 0 c -7.583,2.732 -15.059,23.809 -19.941,31.648 v 0 c -5.916,9.499 -10.882,14.148 -17.105,14.148 v 0 c -2.312,-10e-4 -4.798,-0.642 -7.569,-1.915"
         id="path254" /></clipPath><linearGradient
       x1="0"
       y1="0"
       x2="1"
       y2="0"
       gradientUnits="userSpaceOnUse"
       gradientTransform="matrix(-21.295296,50.513836,50.513836,21.295296,448.22714,270.23816)"
       spreadMethod="pad"
       id="linearGradient266"><stop
         style="stop-opacity:1;stop-color:#002b6a"
         offset="0"
         id="stop262" /><stop
         style="stop-opacity:1;stop-color:#ffffff"
         offset="1"
         id="stop264" /></linearGradient><clipPath
       clipPathUnits="userSpaceOnUse"
       id="clipPath276"><path
         d="M 0,595.275 H 841.89 V 0 H 0 Z"
         id="path274" /></clipPath><clipPath
       clipPathUnits="userSpaceOnUse"
       id="clipPath288"><path
         d="M 291.833,294.936 H 401.972 V -4.57764e-5 H 291.833 Z"
         id="path286" /></clipPath><clipPath
       clipPathUnits="userSpaceOnUse"
       id="clipPath292"><path
         d="M 401.591,279.219 C 400.326,270.489 396.457,42.558 392.333,0 h -100.5 c 36.084,63.177 83.726,276.506 86.846,282.744 7.213,14.426 26.209,19.25 22.912,-3.525"
         id="path290" /></clipPath><linearGradient
       x1="0"
       y1="0"
       x2="1"
       y2="0"
       gradientUnits="userSpaceOnUse"
       gradientTransform="matrix(17.446491,-324.4895,-324.4895,-17.446491,346.89069,142.59975)"
       spreadMethod="pad"
       id="linearGradient298"><stop
         style="stop-opacity:1;stop-color:#60aec2"
         offset="0"
         id="stop294" /><stop
         style="stop-opacity:1;stop-color:#ffffff"
         offset="1"
         id="stop296" /></linearGradient><clipPath
       clipPathUnits="userSpaceOnUse"
       id="clipPath320"><path
         d="m 362.636,559.643 c -1.973,-0.826 2.881,-27.161 3.607,-25.453 v 0 c 4.769,11.213 11.601,12.878 9.525,20.693 v 0 c 0.855,3.297 -0.651,4.985 -2.809,5.983 v 0 c -0.884,0.41 -1.895,0.575 -2.952,0.575 v 0 c -2.569,0 -5.409,-0.976 -7.371,-1.798"
         id="path318" /></clipPath><linearGradient
       x1="0"
       y1="0"
       x2="1"
       y2="0"
       gradientUnits="userSpaceOnUse"
       gradientTransform="matrix(23.998886,-2.5697191,-2.5697191,-23.998886,362.46417,548.40454)"
       spreadMethod="pad"
       id="linearGradient332"><stop
         style="stop-opacity:1;stop-color:#979d9f"
         offset="0"
         id="stop326" /><stop
         style="stop-opacity:1;stop-color:#979d9f"
         offset="0.202454"
         id="stop328" /><stop
         style="stop-opacity:1;stop-color:#d2d1d1"
         offset="1"
         id="stop330" /></linearGradient><clipPath
       clipPathUnits="userSpaceOnUse"
       id="clipPath342"><path
         d="m 360.931,560.672 c -6.641,-0.207 -1.305,-16.386 0.27,-15.884 v 0 c 1.572,0.505 9.195,3.064 11.946,3.943 v 0 c 2.753,0.88 1.837,4.188 0.313,3.954 v 0 c -1.478,0.004 -4.194,-0.509 -4.782,-0.623 v 0 c 0.26,0.054 1.073,0.23 3.459,0.793 v 0 c 3.223,0.762 2.627,3.645 0.918,3.823 v 0 c -2.1,-0.212 -8.666,-0.519 -8.666,-0.519 v 0 c 0,0 3.622,0.614 6.632,1.335 v 0 c 3.094,0.741 1.864,2.898 1.031,3.383 v 0 c -2.82,-0.067 -4.574,0 -11.121,-0.205"
         id="path340" /></clipPath><linearGradient
       x1="0"
       y1="0"
       x2="1"
       y2="0"
       gradientUnits="userSpaceOnUse"
       gradientTransform="matrix(24.217831,5.9167347,6.5313067,-25.782455,351.76428,550.49786)"
       spreadMethod="pad"
       id="linearGradient354"><stop
         style="stop-opacity:1;stop-color:#979d9f"
         offset="0"
         id="stop348" /><stop
         style="stop-opacity:1;stop-color:#979d9f"
         offset="0.202454"
         id="stop350" /><stop
         style="stop-opacity:1;stop-color:#e5e5e5"
         offset="1"
         id="stop352" /></linearGradient><clipPath
       clipPathUnits="userSpaceOnUse"
       id="clipPath364"><path
         d="M 0,595.275 H 841.89 V 0 H 0 Z"
         id="path362" /></clipPath><clipPath
       clipPathUnits="userSpaceOnUse"
       id="clipPath376"><path
         d="m 335.075,569.662 c 0,0 12.81,-76.973 12.915,-77.506 v 0 c 0.106,-0.533 0.651,-2.101 1.783,-0.8 v 0 c 1.132,1.299 20.024,23.719 20.024,23.719 v 0 l -9.009,67.101 z"
         id="path374" /></clipPath><linearGradient
       x1="0"
       y1="0"
       x2="1"
       y2="0"
       gradientUnits="userSpaceOnUse"
       gradientTransform="matrix(18.908285,10.748187,-10.748187,18.908285,334.84747,526.133)"
       spreadMethod="pad"
       id="linearGradient386"><stop
         style="stop-opacity:1;stop-color:#2d4781"
         offset="0"
         id="stop382" /><stop
         style="stop-opacity:1;stop-color:#002b6a"
         offset="1"
         id="stop384" /></linearGradient><clipPath
       clipPathUnits="userSpaceOnUse"
       id="clipPath396"><path
         d="M 0,595.275 H 841.89 V 0 H 0 Z"
         id="path394" /></clipPath></defs><sodipodi:namedview
     pagecolor="#ffffff"
     bordercolor="#666666"
     borderopacity="1"
     objecttolerance="10"
     gridtolerance="10"
     guidetolerance="10"
     inkscape:pageopacity="0"
     inkscape:pageshadow="2"
     inkscape:window-width="1431"
     inkscape:window-height="1030"
     id="namedview12"
     showgrid="false"
     inkscape:zoom="1.0091974"
     inkscape:cx="561.26001"
     inkscape:cy="396.85001"
     inkscape:window-x="32"
     inkscape:window-y="0"
     inkscape:window-maximized="0"
     inkscape:current-layer="g18" /><g
     id="g18"
     inkscape:groupmode="layer"
     inkscape:label="AdobeStock_180243032 [Converted]"
     transform="matrix(1.3333333,0,0,-1.3333333,0,793.7)"><g
       id="g20"><g
         id="g22"
         clip-path="url(#clipPath26)"><g
           id="g28"><g
             id="g30" /><g
             id="g42"><g
               clip-path="url(#clipPath34)"
               opacity="0.399994"
               id="g40"><g
                 transform="translate(690.7832,350.1909)"
                 id="g38"><path
                   d="m 0,0 37.106,-41.982 94.998,66.246 -193.345,45.025 15.218,-17.218 c -47.589,-2.086 -165.694,-14.576 -223.869,-66.675 -58.174,52.1 -176.28,64.589 -223.866,66.675 l 15.217,17.218 -193.347,-45.025 95.001,-66.246 L -539.781,0 c 108.357,-3.827 139.009,-51.413 128.889,-78.999 -0.147,-0.401 -0.253,-0.841 -0.338,-1.3 l -97.73,-269.816 h 480.28 l -99.779,269.305 c -0.086,0.656 -0.226,1.263 -0.427,1.811 C -139.006,-51.413 -108.358,-3.827 0,0"
                   style="fill:#54b9b3;fill-opacity:1;fill-rule:nonzero;stroke:none"
                   id="path36" /></g></g></g></g></g></g><g
       id="g44"><g
         id="g46"
         clip-path="url(#clipPath50)"><g
           id="g52"><g
             id="g54"><path
               d="m 442.776,525.391 -0.923,-4.939 0.871,-0.326 c 0,0 1.411,2.49 1.573,3.957 v 0 c 0.134,1.204 -0.971,1.314 -1.376,1.314 v 0 c -0.09,0 -0.145,-0.006 -0.145,-0.006"
               style="fill:url(#linearGradient62);stroke:none"
               id="path64" /></g></g></g></g><g
       id="g66"><g
         id="g68"
         clip-path="url(#clipPath72)"><g
           id="g74"><g
             id="g76"><path
               d="m 454.106,449.646 c 0.045,-0.025 0.103,-0.047 0.169,-0.066 v 0 c -0.148,0.019 -0.311,0.04 -0.491,0.065 v 0 c -0.983,0.14 -1.304,-0.473 -1.304,-0.473 v 0 c 0,0 -0.653,-0.517 -0.105,-1.642 v 0 c -1.079,-0.59 -0.913,-2.43 -0.301,-2.561 v 0 c -0.674,-0.257 -0.693,-1.21 -0.693,-1.21 v 0 c 0,0 -0.053,-1.144 1.003,-1.46 v 0 c 1.585,-0.52 1.816,-0.75 3.379,-0.957 v 0 c 0.853,-0.114 4.854,-0.558 9.568,0.251 v 0 c 1.708,-0.262 4.722,-0.706 4.722,-0.706 v 0 l 1.593,5.577 c 0,0 -3.938,0.497 -5.789,0.875 v 0 c -1.849,0.379 -4.052,3.35 -7.004,3.757 v 0 c -0.856,0.118 -1.489,0.086 -2.084,0.053 v 0 c -1.048,-0.056 -1.975,-0.114 -3.775,0.651 v 0 c -0.59,-0.847 -0.006,-1.511 1.112,-2.154"
               style="fill:url(#linearGradient84);stroke:none"
               id="path86" /></g></g></g></g><g
       id="g88"><g
         id="g90"
         clip-path="url(#clipPath94)"><g
           id="g96"><g
             id="g98"><path
               d="m 452.443,447.512 c -0.792,-0.398 -1.185,-1.931 -0.309,-2.602 v 0 c -1.408,-0.377 -0.466,-2.572 0.103,-2.524 v 0 c 1.092,0.09 4.476,0.289 5.712,0.372 v 0 c 1.238,0.083 1.162,1.056 0.586,1.535 v 0 c -1.108,0.152 -4.389,0.448 -4.389,0.448 v 0 c 0,0 2.317,0.062 3.733,0.187 v 0 c 1.539,0.136 1.269,1.592 0.376,1.834 v 0 c -0.846,0.105 -3.814,0.551 -3.814,0.551 v 0 c 0,0 1.891,-0.133 3.271,-0.153 v 0 c 1.391,-0.018 1.502,1.454 0.228,1.678 v 0 c -1.174,0.298 -3.022,0.636 -4.048,0.796 v 0 c -0.091,0.014 -0.183,0.021 -0.275,0.021 v 0 c -1.002,-10e-4 -2.053,-0.803 -1.174,-2.143"
               style="fill:url(#linearGradient106);stroke:none"
               id="path108" /></g></g></g></g><g
       id="g110"><g
         id="g112"
         clip-path="url(#clipPath116)"><g
           id="g118"
           transform="translate(433.2744,334.063)"><path
             d="m 0,0 c -7.811,1.849 -17.13,-0.292 -20.416,-7.211 -1.244,-2.624 4.19,-9.206 6.51,-10.701 3.25,3.563 8.621,5.025 14.249,3.69 4.59,-1.087 9.761,-8.275 11.653,-11.809 0.052,1.289 0.018,2.037 0.464,3.917 C 14.057,-15.379 7.814,-1.853 0,0"
             style="fill:#405c96;fill-opacity:1;fill-rule:nonzero;stroke:none"
             id="path120" /></g><g
           id="g122"
           transform="translate(382.4824,551.1372)"><path
             d="m 0,0 c 0.853,-5.694 -6.07,-14.653 -11.451,-15.395 -5.789,-0.797 -8.331,4.998 -9.311,11.539 -0.979,6.539 4.103,13.821 9.883,14.686 C -5.098,11.695 -0.978,6.537 0,0"
             style="fill:#405c96;fill-opacity:1;fill-rule:nonzero;stroke:none"
             id="path124" /></g><g
           id="g126"
           transform="translate(412.0264,353.2671)"><path
             d="m 0,0 c -1.974,-5.671 -5.163,-12.12 -11.153,-11.917 -7.604,0.258 -8.287,13.044 -8.287,18.811 0,5.766 6.749,13.686 11.658,13.686 C -2.874,20.58 1.676,10.222 0,0"
             style="fill:#405c96;fill-opacity:1;fill-rule:nonzero;stroke:none"
             id="path128" /></g><g
           id="g130"><g
             id="g132" /><g
             id="g160"><g
               clip-path="url(#clipPath136)"
               id="g158"><g
                 id="g156"><g
                   clip-path="url(#clipPath140)"
                   id="g154"><g
                     id="g152"><g
                       id="g150"><path
                         d="M 520.333,0 C 489,131.275 466.725,270.051 466.725,270.051 l -17.642,3.256 -12.943,-2.969 C 436.14,270.338 410.897,41.753 406,0 Z"
                         style="fill:url(#linearGradient146);stroke:none"
                         id="path148" /></g></g></g></g></g></g></g><g
           id="g162"
           transform="translate(434.3496,514.9165)"><path
             d="m 0,0 c 0,0 -49.631,-1.357 -66.074,-15.326 -0.997,-5.866 -3.282,-14.441 -3.339,-20.02 2.542,-5.154 8.336,-6.337 8.336,-6.337 l 14.259,3.839 -5.025,17.087 c 0,0 -2.983,0.326 -5.99,1.471 21.824,12.419 58.802,16.914 58.802,16.914 z"
             style="fill:#cf3d5d;fill-opacity:1;fill-rule:nonzero;stroke:none"
             id="path164" /></g><g
           id="g166"><g
             id="g168" /><g
             id="g180"><g
               clip-path="url(#clipPath172)"
               opacity="0.660004"
               id="g178"><g
                 transform="translate(376.5161,495.6304)"
                 id="g176"><path
                   d="m 0,0 c 0,0 -4.717,1.888 -6.656,3.416 0.817,1.187 5.68,7.203 33.072,12.239 1.102,-1.676 1.792,-3.48 1.836,-4.75 C 12.403,6.938 0,0 0,0"
                   style="fill:#9ed7e3;fill-opacity:1;fill-rule:nonzero;stroke:none"
                   id="path174" /></g></g></g></g><g
           id="g182"
           transform="translate(466.8896,270.0791)"><path
             d="m 0,0 -0.05,1.745 c 0,0 -1.932,1.11 -3.943,3.635 -2.01,2.525 -16.497,35.773 -22.166,41.649 -5.669,5.876 -26.392,3.712 -24.433,-7.423 1.958,-11.134 6.804,-23.199 6.804,-23.199 l 5.648,0.789 27.343,-16.249 z"
             style="fill:#405c96;fill-opacity:1;fill-rule:nonzero;stroke:none"
             id="path184" /></g><g
           id="g186"
           transform="translate(403.2754,320.6724)"><path
             d="M 0,0 C 0,0 3.9,5.239 3.121,16.719 2.341,28.201 3.524,29.673 6.297,35.388 10.551,44.156 -2.118,52.386 -8.639,38.956 -15.626,24.56 -17.61,13.153 -17.61,13.153 Z"
             style="fill:#12356d;fill-opacity:1;fill-rule:nonzero;stroke:none"
             id="path188" /></g><g
           id="g190"
           transform="translate(375.749,469.8423)"><path
             d="m 0,0 c 0,0 -12.292,-16.459 -15.23,-27.915 -2.938,-11.456 10.626,-13.396 16.795,-11.34 9.45,7.559 14.884,18.985 14.884,18.985 z"
             style="fill:#405c96;fill-opacity:1;fill-rule:nonzero;stroke:none"
             id="path192" /></g><g
           id="g194"
           transform="translate(457.2861,491.2139)"><path
             d="M 0,0 C -1.452,5.424 -9.64,22.928 0.415,20.247 6.001,14.325 6.753,12.423 12.04,2.905 17.327,-6.612 42.016,-34.819 44.953,-41.869 44.506,-47.901 38.92,-55.61 27.805,-54.442 c -11.857,1.246 -17.784,4.009 -19.76,4.821 -2.566,1.794 -1.672,4.847 0.526,5.746 8.67,0.58 15.736,0.991 20.289,1.138 -18.992,10.948 -28.801,29.399 -28.801,29.399 0,0 1.43,7.785 -0.059,13.338"
             style="fill:#12356d;fill-opacity:1;fill-rule:nonzero;stroke:none"
             id="path196" /></g><g
           id="g198"
           transform="translate(383.542,471.7295)"><path
             d="m 0,0 c -13.574,-23.719 14.106,-54.82 14.106,-78.755 -6.35,-4.396 -5.642,-16.737 -4.817,-32.814 6.077,9.514 19.885,9.268 19.14,-7.118 2.532,6.704 9.124,24.464 12.243,34.047 -2.784,21.963 -4.945,34.218 -4.945,34.218 l 1.717,-1.287 c 0,0 10.164,-35.267 17.998,-54.366 -9.48,-10.306 -18.111,-20.254 -26.273,-39.175 5.308,9.082 25.662,4.792 33.449,-13.636 2.307,7.998 9.679,30.219 15.339,49.137 -1.718,19.242 2.309,66.362 -14.002,93.398 C 55.702,-2.671 21.848,13.052 0,0"
             style="fill:#12356d;fill-opacity:1;fill-rule:nonzero;stroke:none"
             id="path200" /></g><g
           id="g202"
           transform="translate(372.8174,454.522)"><path
             d="m 0,0 c 0,0 33.227,19.959 74.644,-6.624 7.636,-4.902 9.02,0.988 9.02,0.988 L 19.379,31.467 Z"
             style="fill:#405c96;fill-opacity:1;fill-rule:nonzero;stroke:none"
             id="path204" /></g></g></g><g
       id="g206"><g
         id="g208"
         clip-path="url(#clipPath212)"><g
           id="g214"><g
             id="g216"><path
               d="m 395.584,360.242 c -1.559,-4.458 -1.559,-8.695 -9.362,-22.069 v 0 c -7.927,-13.59 3.121,-25.859 6.687,-26.306 v 0 c 3.568,-0.445 5.797,0.671 9.587,6.466 v 0 c 3.788,5.796 1.56,8.916 0.221,14.935 v 0 c -0.669,3.009 0.757,7.779 2.298,12.184 v 0 c 0.144,0.406 -10.847,6.023 -10.847,6.023 v 0 c 0,0 11.542,-4.088 11.58,-3.989 v 0 c 1.544,4.063 2.765,6.29 2.765,6.29 v 0 c 2.894,7.026 -1.755,10.613 -6.33,10.613 v 0 c -2.828,0 -5.627,-1.371 -6.599,-4.147"
               style="fill:url(#linearGradient222);stroke:none"
               id="path224" /></g></g></g></g><g
       id="g226"><g
         id="g228"
         clip-path="url(#clipPath232)"><g
           id="g234"
           transform="translate(400.6396,506.2324)"><path
             d="m 0,0 c -3.645,20.671 -8.411,35.567 -10.497,42.27 -2.448,-1.803 -15.448,-11.299 -15.448,-11.299 0,0 5.445,4.11 4.785,15.456 -0.629,10.784 -10.078,8.59 -11.016,8.205 10.582,4.098 15.027,5.707 21.083,7.897 C 1.42,59.475 8.867,48.229 14.314,22.27 15.299,17.583 16.061,10.774 0,0"
             style="fill:#12356d;fill-opacity:1;fill-rule:nonzero;stroke:none"
             id="path236" /></g><g
           id="g238"
           transform="translate(423.7705,528.4302)"><path
             d="m 0,0 c 0,0 -1.415,8.863 10.931,8.625 11.34,-0.22 8.486,-11.98 7.37,-16.694 C 5.338,-2.199 0,0 0,0"
             style="fill:#12356d;fill-opacity:1;fill-rule:nonzero;stroke:none"
             id="path240" /></g><g
           id="g242"
           transform="translate(417.9434,301.2793)"><path
             d="m 0,0 c 0,0 -7.523,14.824 -1.44,22.866 7.47,10.145 22.371,2.268 28.078,-9.358 0.553,-1.126 7.898,-20.036 18.715,-32.816 3.375,-3.989 2.397,-9.404 2.397,-9.404 0,0 -7.283,5.256 -14.812,22.523 C 26.607,8.343 20.368,19.797 8.548,17.45 -4.448,14.868 0,0 0,0"
             style="fill:#12356d;fill-opacity:1;fill-rule:nonzero;stroke:none"
             id="path244" /></g><g
           id="g246"
           transform="translate(360.1753,440.3809)"><path
             d="m 0,0 c 6.434,25.297 16.71,38.037 34.809,53.789 4.022,10.39 8.516,20.384 12.294,39.076 C 61.271,86.999 90.653,76.97 97.526,71.154 100.412,62.898 102.417,60.602 97.998,46.96 93.578,33.319 97.423,36.599 96.647,11.341 96.203,-3.069 83.505,19.474 48.871,21.692 12.99,23.991 4.625,7.05 0,0"
             style="fill:#12356d;fill-opacity:1;fill-rule:nonzero;stroke:none"
             id="path248" /></g></g></g><g
       id="g250"><g
         id="g252"
         clip-path="url(#clipPath256)"><g
           id="g258"><g
             id="g260"><path
               d="m 422.274,313.96 c -11.704,-5.377 0.828,-27.474 0.828,-27.474 v 0 c 0,0 19.537,7.729 22.334,8.713 v 0 c 0.155,-0.228 -13.675,-6.469 -16.942,-7.919 v 0 c 3.801,-6.298 4.805,-17.017 7.883,-17.017 v 0 c 3.196,0 19.695,-0.431 30.512,-0.184 v 0 c -7.583,2.732 -15.059,23.809 -19.941,31.648 v 0 c -5.916,9.499 -10.882,14.148 -17.105,14.148 v 0 c -2.312,-10e-4 -4.798,-0.642 -7.569,-1.915"
               style="fill:url(#linearGradient266);stroke:none"
               id="path268" /></g></g></g></g><g
       id="g270"><g
         id="g272"
         clip-path="url(#clipPath276)"><g
           id="g278"
           transform="translate(368.2754,499.5903)"><path
             d="m 0,0 c -0.997,-5.866 -3.282,-14.441 -3.338,-20.02 2.542,-5.153 8.335,-6.336 8.335,-6.336 l 14.259,3.838 -5.025,17.087 c 0,0 -2.983,0.326 -5.99,1.471 C 4.581,-2.506 2.869,-1.881 0,0"
             style="fill:#cf3d5d;fill-opacity:1;fill-rule:nonzero;stroke:none"
             id="path280" /></g><g
           id="g282"><g
             id="g284" /><g
             id="g312"><g
               clip-path="url(#clipPath288)"
               id="g310"><g
                 id="g308"><g
                   clip-path="url(#clipPath292)"
                   id="g306"><g
                     id="g304"><g
                       id="g302"><path
                         d="M 401.591,279.219 C 400.326,270.489 396.457,42.558 392.333,0 h -100.5 c 36.084,63.177 83.726,276.506 86.846,282.744 7.213,14.426 26.209,19.25 22.912,-3.525"
                         style="fill:url(#linearGradient298);stroke:none"
                         id="path300" /></g></g></g></g></g></g></g></g></g><g
       id="g314"><g
         id="g316"
         clip-path="url(#clipPath320)"><g
           id="g322"><g
             id="g324"><path
               d="m 362.636,559.643 c -1.973,-0.826 2.881,-27.161 3.607,-25.453 v 0 c 4.769,11.213 11.601,12.878 9.525,20.693 v 0 c 0.855,3.297 -0.651,4.985 -2.809,5.983 v 0 c -0.884,0.41 -1.895,0.575 -2.952,0.575 v 0 c -2.569,0 -5.409,-0.976 -7.371,-1.798"
               style="fill:url(#linearGradient332);stroke:none"
               id="path334" /></g></g></g></g><g
       id="g336"><g
         id="g338"
         clip-path="url(#clipPath342)"><g
           id="g344"><g
             id="g346"><path
               d="m 360.931,560.672 c -6.641,-0.207 -1.305,-16.386 0.27,-15.884 v 0 c 1.572,0.505 9.195,3.064 11.946,3.943 v 0 c 2.753,0.88 1.837,4.188 0.313,3.954 v 0 c -1.478,0.004 -4.194,-0.509 -4.782,-0.623 v 0 c 0.26,0.054 1.073,0.23 3.459,0.793 v 0 c 3.223,0.762 2.627,3.645 0.918,3.823 v 0 c -2.1,-0.212 -8.666,-0.519 -8.666,-0.519 v 0 c 0,0 3.622,0.614 6.632,1.335 v 0 c 3.094,0.741 1.864,2.898 1.031,3.383 v 0 c -2.82,-0.067 -4.574,0 -11.121,-0.205"
               style="fill:url(#linearGradient354);stroke:none"
               id="path356" /></g></g></g></g><g
       id="g358"><g
         id="g360"
         clip-path="url(#clipPath364)"><g
           id="g366"
           transform="translate(348.8604,490.8535)"><path
             d="m 0,0 c 0,0 -7.073,1.087 -12.333,0.173 -0.283,-0.026 -1.485,0.157 -1.742,1.456 -0.137,0.693 -12.235,62.519 -14.787,75.049 -0.455,2.233 1.977,3.172 1.977,3.172 0,0 25.979,10.662 28.106,11.464 3.706,1.404 6.328,1.593 9.192,1.076 1.384,-0.252 1.491,-0.897 1.491,-0.897 l 9.033,-67.271 z"
             style="fill:#12356d;fill-opacity:1;fill-rule:nonzero;stroke:none"
             id="path368" /></g></g></g><g
       id="g370"><g
         id="g372"
         clip-path="url(#clipPath376)"><g
           id="g378"><g
             id="g380"><path
               d="m 335.075,569.662 c 0,0 12.81,-76.973 12.915,-77.506 v 0 c 0.106,-0.533 0.651,-2.101 1.783,-0.8 v 0 c 1.132,1.299 20.024,23.719 20.024,23.719 v 0 l -9.009,67.101 z"
               style="fill:url(#linearGradient386);stroke:none"
               id="path388" /></g></g></g></g><g
       id="g390"><g
         id="g392"
         clip-path="url(#clipPath396)"><g
           id="g398"
           transform="translate(353.7461,534.6724)"><path
             d="m 0,0 c -0.549,-0.468 -1.282,-1.12 -1.811,-1.526 -1.33,-1.02 -2.19,-0.345 -2.443,0.873 -0.076,0.321 -0.681,3.584 -0.773,4.073 -0.366,1.663 0.397,2.726 1.649,3.642 0.574,0.42 1.058,0.793 1.852,1.343 C -1.043,5.775 -0.272,1.409 0,0"
             style="fill:#ffffff;fill-opacity:1;fill-rule:nonzero;stroke:none"
             id="path400" /></g><g
           id="g402"
           transform="translate(370.6987,517.6616)"><path
             d="m 0,0 c 0.11,-0.974 0.281,-3.103 -1.547,-5.624 -1.828,-2.52 -4.649,-5.903 -6.38,-8.072 -1.732,-2.17 -3.225,2.021 -3.317,3.749 -0.092,1.725 -11.11,61.277 -11.553,63.099 -0.444,1.823 -0.609,3.853 3.018,5.816 3.174,1.716 7.061,3.577 8.673,4.387 1.126,0.564 1.194,1.159 1.194,1.159 0,0 9.803,-63.54 9.912,-64.514"
             style="fill:#2d4781;fill-opacity:1;fill-rule:nonzero;stroke:none"
             id="path404" /></g></g></g></g></svg>
